PathFileType	4	(X/Y/Z)	Walk8.trc
DataRate	CameraRate	NumFrames	NumMarkers	Units	OrigDataRate	OrigDataStartFrame	OrigNumFrames
200.000000	200.000000	5	69	mm	200.000000	557	868
Frame#	Times		RCAR		LowerBodyModelVer		LMT5		LTB1		LACR1		LTB2		LFHD		LMT1		RUA1		LToe		RFHD		RASI		RElbow		LUA1		STRN		RACR1		RFA1		RTH3		CLAV		RBHD		LTH3		RWRU		LCAR		RTH2		RLFC		LTH1		RTH1		RBack		RTB2		RTB4		LTH2		RTB3		LFA1		LElbow		LWRR		LLFC		C7		RMT1		RTH4		LPSI		RToe		RTB1		LTB4		LWRU		LTH4		LElbowM		LTB3		RPSI		LMMAL		SACR		RLMAL		RMMAL		LBHD		RCAL		RMT5		RWRR		T10		LASI		LCAL		LHJC		MidPelvis		OPelvis		PELOrigin		RHJC		XPelvis		YPelvis		ZPelvis		LLMAL		RElbowM
			X1	Y1	Z1	X2	Y2	Z2	X3	Y3	Z3	X4	Y4	Z4	X5	Y5	Z5	X6	Y6	Z6	X7	Y7	Z7	X8	Y8	Z8	X9	Y9	Z9	X10	Y10	Z10	X11	Y11	Z11	X12	Y12	Z12	X13	Y13	Z13	X14	Y14	Z14	X15	Y15	Z15	X16	Y16	Z16	X17	Y17	Z17	X18	Y18	Z18	X19	Y19	Z19	X20	Y20	Z20	X21	Y21	Z21	X22	Y22	Z22	X23	Y23	Z23	X24	Y24	Z24	X25	Y25	Z25	X26	Y26	Z26	X27	Y27	Z27	X28	Y28	Z28	X29	Y29	Z29	X30	Y30	Z30	X31	Y31	Z31	X32	Y32	Z32	X33	Y33	Z33	X34	Y34	Z34	X35	Y35	Z35	X36	Y36	Z36	X37	Y37	Z37	X38	Y38	Z38	X39	Y39	Z39	X40	Y40	Z40	X41	Y41	Z41	X42	Y42	Z42	X43	Y43	Z43	X44	Y44	Z44	X45	Y45	Z45	X46	Y46	Z46	X47	Y47	Z47	X48	Y48	Z48	X49	Y49	Z49	X50	Y50	Z50	X51	Y51	Z51	X52	Y52	Z52	X53	Y53	Z53	X54	Y54	Z54	X55	Y55	Z55	X56	Y56	Z56	X57	Y57	Z57	X58	Y58	Z58	X59	Y59	Z59	X60	Y60	Z60	X61	Y61	Z61	X62	Y62	Z62	X63	Y63	Z63	X64	Y64	Z64	X65	Y65	Z65	X66	Y66	Z66	X67	Y67	Z67	X68	Y68	Z68	X69	Y69	Z69

557	2.785	-449.96	783.79	371.93	9	2014	4	-217.8	53.583	-23.992	-356.18	357.04	1.9955	-626.99	1350.9	-117.27	-358.6	264.81	-51.791	-517.06	1559.4	-10.132	-194.55	83.807	43.278	-602.62	1161.9	290.97	-138.83	106.39	11.674	-502.74	1558.9	83.645	-527.54	945.6	196.45	-624.11	1038.2	328.18	-692.35	1182.6	-213.14	-501.9	1202.8	39.582	-624.71	1337	195.91	-578.55	898.64	351.52	-711.46	567	192.33	-559.13	1307.9	38.062	-656.2	1521.9	122.44	-498.71	571.71	-117.14	-525.4	800.6	359.58	-817.37	778.09	-285.59	-626.66	626.92	199.75	-750.82	487.96	166.67	-568.46	717.1	-176.89	-645.49	716.07	248.35	-749.82	1285.1	152.13	-838.35	262.37	135.94	-816.68	251.88	77.033	-482.85	675.94	-135.74	-858.1	176.98	75.728	-823.01	954.58	-260.58	-771.3	1077.4	-234.53	-796.02	820.28	-241.86	-453.38	466.87	-75.83	-698.44	1387.4	50.992	-839.88	32.712	29.666	-680.47	641.09	218.7	-756.79	931.58	-24.909	-772.06	18.603	58.186	-775.1	328.62	85.073	-335.57	272.84	4.403	-853.45	842.73	-280.24	-534.27	646.13	-143.63	-795.44	1057.1	-157.68	-313.9	189.78	3.7824	-763.36	939.8	64.029	-300	84.333	65.464	-760.07	935.69	19.56	-941.58	88.125	93.627	-923.8	95.612	11.726	-672.37	1515.2	-17.659	-1011.8	76.457	56.829	-822.54	33.492	91.663	-473.79	825.53	316.57	-770.75	1121.2	29.866	-501.78	932.55	-97.732	-363.26	23.162	26.312	-574.43	839.3	-52.434	-637.37	937.38	34.461	-514.66	939.07	49.361	-514.66	939.07	49.361	-591.95	848.17	147.61	-434.97	940.05	56.297	-515.33	1019	45.758	-521.64	942.61	128.98	-316.54	69.568	-16.17	-637.81	998.95	239.2
558	2.79	-443.63	783.39	371.74	9	2014	4	-214.98	51.102	-22.435	-350.27	355.92	3.3607	-620.4	1350.1	-117.66	-353.11	263.78	-50.547	-510.98	1559.2	-10.386	-191.51	80.256	45.222	-596.44	1161.4	290.84	-135.18	102	14.188	-496.75	1558.7	83.416	-520.59	944.84	196.37	-617.92	1037.7	327.98	-685.72	1181.6	-213.26	-495.16	1202.4	39.443	-618.26	1336.5	195.66	-572.29	898.14	351.32	-705.17	566.47	192.33	-552.55	1307.4	37.788	-650.14	1521.2	121.99	-491.55	571.54	-116.5	-519.09	800.11	359.36	-812.35	777.48	-285.49	-620.21	626.2	199.79	-744.74	487.51	166.68	-561.56	716.66	-176.54	-638.83	715.39	248.34	-743.28	1284.5	151.71	-834.64	262.75	136.22	-813.3	251.95	77.218	-475.81	675.7	-135.47	-855.73	177.62	76.039	-816.98	954.05	-260.59	-764.84	1076.5	-234.54	-790.62	819.63	-241.92	-446.21	466.63	-75.181	-691.91	1386.8	50.604	-839.68	32.965	29.769	-674	640.5	218.65	-749.8	931.19	-25.191	-771.98	18.48	58.155	-770.69	328.13	85.077	-330.4	271.56	5.8256	-847.93	842.4	-280.31	-527.24	645.84	-143.08	-788.97	1056.2	-157.7	-309.42	188.35	5.2334	-756.3	939.28	63.825	-297.06	82.663	66.837	-753.05	935.23	19.317	-940.35	89.839	94.268	-922.69	97.156	12.323	-666.13	1514.5	-18.081	-1010.9	79.238	57.616	-822.13	34.515	91.922	-467.44	825.11	316.37	-763.87	1120.5	29.683	-494.46	932.02	-97.561	-360.96	23.124	27.024	-567.18	838.85	-52.472	-630.29	936.83	34.362	-507.53	938.43	49.406	-507.53	938.43	49.406	-584.95	847.57	147.4	-427.85	939.35	56.45	-508.14	1018.3	45.866	-514.61	941.9	129.02	-313.25	68.444	-14.976	-631.44	998.39	238.92
559	2.795	-437.44	782.97	371.53	9	2014	4	-212.54	48.509	-20.953	-344.39	354.82	4.7321	-613.8	1349.4	-118.06	-347.69	262.8	-49.325	-504.88	1559.1	-10.655	-188.8	76.459	47.154	-590.27	1160.9	290.71	-131.83	97.247	16.718	-490.74	1558.6	83.171	-513.57	944.1	196.23	-611.78	1037.2	327.74	-679.02	1180.7	-213.38	-488.39	1202	39.28	-611.77	1336.1	195.41	-566.14	897.66	351.08	-698.73	565.92	192.33	-545.94	1307	37.499	-644.06	1520.6	121.51	-484.35	571.44	-115.9	-512.91	799.62	359.1	-807.11	776.85	-285.39	-613.64	625.5	199.8	-738.47	487.02	166.69	-554.59	716.32	-176.18	-632.08	714.7	248.31	-736.7	1283.8	151.27	-830.78	263.14	136.52	-809.78	252.01	77.444	-468.71	675.54	-135.2	-853.22	178.29	76.385	-810.8	953.48	-260.62	-758.26	1075.7	-234.57	-785.04	818.96	-241.96	-438.98	466.49	-74.567	-685.34	1386.3	50.198	-839.45	33.229	29.88	-667.4	639.9	218.59	-742.81	930.87	-25.436	-771.92	18.344	58.124	-766.11	327.61	85.121	-325.33	270.3	7.2401	-842.21	842.02	-280.39	-520.15	645.65	-142.56	-782.4	1055.3	-157.73	-305.13	186.93	6.6622	-749.21	938.8	63.664	-294.45	80.972	68.158	-746.01	934.83	19.114	-939.02	91.636	94.944	-921.47	98.782	12.962	-659.87	1513.9	-18.529	-1009.8	82.16	58.427	-821.69	35.581	92.184	-461.2	824.68	316.16	-756.97	1119.9	29.514	-487.12	931.53	-97.429	-359.06	23.222	27.634	-559.91	838.46	-52.55	-623.18	936.32	34.257	-500.35	937.81	49.401	-500.35	937.81	49.401	-577.89	847	147.14	-420.67	938.66	56.54	-500.89	1017.7	45.932	-507.52	941.22	129.01	-310.28	67.355	-13.851	-625.15	997.86	238.61
560	2.8	-431.39	782.54	371.32	9	2014	4	-210.43	45.862	-19.568	-338.54	353.79	6.093	-607.17	1348.7	-118.48	-342.32	261.9	-48.145	-498.76	1559.1	-10.939	-186.38	72.494	49.051	-584.13	1160.5	290.57	-128.74	92.226	19.229	-484.73	1558.6	82.91	-506.48	943.37	196.03	-605.7	1036.8	327.47	-672.25	1179.8	-213.5	-481.59	1201.7	39.094	-605.23	1335.8	195.14	-560.09	897.21	350.81	-692.12	565.35	192.33	-539.31	1306.6	37.196	-637.97	1520	121.02	-477.13	571.42	-115.32	-506.87	799.14	358.81	-801.65	776.19	-285.29	-606.92	624.82	199.78	-732.01	486.49	166.71	-547.54	716.1	-175.83	-625.21	714.03	248.26	-730.09	1283.3	150.83	-826.77	263.53	136.85	-806.09	252.07	77.717	-461.54	675.46	-134.94	-850.58	179	76.772	-804.47	952.89	-260.67	-751.58	1074.8	-234.61	-779.26	818.28	-242	-431.7	466.45	-73.997	-678.75	1385.8	49.776	-839.19	33.504	30	-660.67	639.3	218.52	-735.8	930.61	-25.64	-771.86	18.195	58.093	-761.34	327.05	85.211	-320.35	269.08	8.6295	-836.29	841.61	-280.49	-513	645.55	-142.05	-775.73	1054.3	-157.79	-300.99	185.54	8.0512	-742.09	938.37	63.55	-292.11	79.3	69.415	-738.95	934.49	18.955	-937.56	93.518	95.659	-920.13	100.49	13.644	-653.59	1513.3	-19.001	-1008.5	85.232	59.26	-821.24	36.695	92.446	-455.08	824.26	315.94	-750.05	1119.4	29.362	-479.77	931.1	-97.334	-357.5	23.451	28.143	-552.61	838.13	-52.668	-616.04	935.86	34.151	-493.12	937.23	49.346	-493.12	937.23	49.346	-570.78	846.47	146.82	-413.46	938.01	56.568	-493.6	1017.2	45.958	-500.37	940.56	128.95	-307.59	66.323	-12.806	-618.91	997.39	238.28
561	2.805	-425.49	782.1	371.1	9	2014	4	-208.59	43.215	-18.299	-332.72	352.82	7.4247	-600.53	1348	-118.92	-336.99	261.08	-47.024	-492.63	1559.1	-11.24	-184.23	68.441	50.89	-578	1160.1	290.41	-125.9	87.029	21.685	-478.7	1558.7	82.633	-499.32	942.67	195.76	-599.67	1036.4	327.17	-665.41	1178.9	-213.63	-474.76	1201.5	38.886	-598.65	1335.5	194.87	-554.14	896.8	350.5	-685.34	564.77	192.34	-532.65	1306.3	36.882	-631.86	1519.5	120.51	-469.88	571.49	-114.77	-500.96	798.68	358.49	-795.95	775.53	-285.19	-600.07	624.16	199.72	-725.33	485.91	166.74	-540.42	716.01	-175.5	-618.23	713.38	248.2	-723.44	1282.8	150.4	-822.59	263.93	137.22	-802.23	252.13	78.044	-454.33	675.47	-134.7	-847.79	179.75	77.204	-797.97	952.28	-260.72	-744.79	1074	-234.68	-773.29	817.59	-242.03	-424.39	466.52	-73.477	-672.11	1385.4	49.34	-838.89	33.794	30.13	-653.8	638.7	218.43	-728.8	930.43	-25.794	-771.83	18.035	58.061	-756.37	326.45	85.355	-315.46	267.93	9.9748	-830.17	841.16	-280.59	-505.81	645.57	-141.57	-768.97	1053.4	-157.86	-297	184.2	9.3805	-734.96	938	63.488	-290.01	77.68	70.594	-731.88	934.21	18.847	-935.98	95.491	96.415	-918.63	102.29	14.375	-647.28	1512.8	-19.494	-1007.1	88.463	60.113	-820.76	37.86	92.706	-449.07	823.83	315.7	-743.13	1119	29.23	-472.4	930.72	-97.275	-356.21	23.8	28.553	-545.29	837.87	-52.828	-608.87	935.45	34.044	-485.86	936.7	49.24	-485.86	936.7	49.24	-563.6	845.99	146.43	-406.2	937.4	56.532	-486.26	1016.6	45.945	-493.17	939.94	128.84	-305.12	65.361	-11.851	-612.74	996.97	237.93
